# xmcd CD database file
#
# Track frame offsets:
#	150
#	30361
#	40156
#	61874
#	97018
#	113058
#	135593
#	150015
#	181765
#	200510
#	217758
#	241846
#	260188
#	268678
#
# Disc length: 3649 seconds
#
# Revision: 1
# Processed by: cddbd v1.5.2PL0 Copyright (c) Steve Scherf et al.
# Submitted via: CDex 1.77
#
DISCID=b10e3f0e
DTITLE=Mitchel Forman - Perspective
DYEAR=2005
DGENRE=Jazz
TTITLE0=Dolphin Dance
TTITLE1=Yaqui Indian Folk Song
TTITLE2=First Trip
TTITLE3=Geraldine
TTITLE4=You're Everything
TTITLE5=Here There and Everywhere
TTITLE6=What a Wonderful World
TTITLE7=Blossom
TTITLE8=Milton
TTITLE9=Face on the Barroom Floor
TTITLE10=Michelle
TTITLE11=Thousand Island Park
TTITLE12=A Dog's Life
TTITLE13=A Wonderful World (Not)
EXTD=YEAR: 2005
EXTT0=
EXTT1=
EXTT2=
EXTT3=
EXTT4=
EXTT5=
EXTT6=
EXTT7=
EXTT8=
EXTT9=
EXTT10=
EXTT11=
EXTT12=
EXTT13=
PLAYORDER=
